<svg width="235" height="100" viewBox="0 0 235 100" fill="none" xmlns="http://www.w3.org/2000/svg">
<path fill-rule="evenodd" clip-rule="evenodd" d="M184.537 45.0223C194.176 40.4983 199.75 35.1467 199.75 29.4118C199.75 13.1681 155.034 0 99.875 0C44.7156 0 0 13.1681 0 29.4118C0 40.362 20.3208 49.9146 50.4631 54.9777C40.8238 59.5017 35.25 64.8533 35.25 70.5882C35.25 86.8319 79.9656 100 135.125 100C190.284 100 235 86.8319 235 70.5882C235 59.638 214.679 50.0854 184.537 45.0223Z" fill="#393945"/>
<path d="M128.428 19.0476H106.573C89.2609 19.0476 89.2609 28.2633 89.2609 36.381V51.2437C89.2609 52.1065 89.6525 52.8908 90.3184 53.4006C90.9842 53.9104 91.885 54.1065 92.7075 53.8712C94.47 53.4006 96.6634 53.1653 99.2875 53.1653C101.912 53.1653 102.46 53.479 104.027 54.6555L107.591 58.4202C110.137 61.1653 113.779 62.7339 117.539 62.7339C121.299 62.7339 124.903 61.1653 127.488 58.4202L131.052 54.6555C132.618 53.479 133.167 53.1653 135.791 53.1653C138.415 53.1653 140.608 53.4006 142.371 53.8712C143.193 54.1065 144.055 53.9104 144.76 53.4006C145.426 52.8908 145.818 52.0672 145.818 51.2437V36.381C145.739 28.2633 145.739 19.0476 128.428 19.0476Z" fill="#9A97F1"/>
<path d="M126.41 30.028C125.392 29.0084 123.708 29.0084 122.69 30.028L120.144 32.577V13.8319C120.144 12.381 118.93 11.2045 117.48 11.2045C116.031 11.2045 114.817 12.381 114.817 13.8319V32.5378L112.31 30.028C111.292 29.0084 109.608 29.0084 108.59 30.028C107.571 31.0476 107.571 32.7339 108.59 33.7535L115.64 40.8123C115.679 40.8516 115.679 40.8516 115.718 40.8516C115.953 41.0476 116.188 41.2437 116.501 41.3614C116.815 41.479 117.167 41.5574 117.52 41.5574C117.872 41.5574 118.185 41.479 118.538 41.3614C118.851 41.2437 119.165 41.0476 119.4 40.7731L126.45 33.7143C127.429 32.7339 127.429 31.0476 126.41 30.028Z" fill="white"/>
<path d="M143.703 48.577C141.47 47.9888 138.846 47.6751 135.713 47.6751C131.365 47.6751 129.759 48.7339 127.527 50.4202C127.409 50.4986 127.292 50.6163 127.174 50.7339L123.453 54.6947C120.32 57.9888 114.68 58.028 111.547 54.6555L107.826 50.7339C107.708 50.6163 107.591 50.4986 107.473 50.4202C105.241 48.7339 103.635 47.6751 99.2875 47.6751C96.1542 47.6751 93.53 47.9888 91.2975 48.577C81.9759 51.0868 81.9759 58.4986 81.9759 65.0084V68.6555C81.9759 78.4986 81.9759 89.6359 102.93 89.6359H132.07C145.974 89.6359 153.024 82.577 153.024 68.6555V65.0084C153.024 58.4986 153.024 51.0868 143.703 48.577ZM126.626 75.5182H108.374C106.886 75.5182 105.672 74.3025 105.672 72.7731C105.672 71.2437 106.886 70.028 108.374 70.028H126.626C128.114 70.028 129.328 71.2437 129.328 72.7731C129.328 74.3025 128.114 75.5182 126.626 75.5182Z" fill="white"/>
<path d="M129.328 72.7731C129.328 74.3025 128.114 75.5182 126.626 75.5182H108.374C106.886 75.5182 105.672 74.3025 105.672 72.7731C105.672 71.2437 106.886 70.028 108.374 70.028H126.626C128.114 70.028 129.328 71.2437 129.328 72.7731Z" fill="#9C99F5"/>
</svg>
