<svg width="33" height="33" viewBox="0 0 33 33" fill="none" xmlns="http://www.w3.org/2000/svg">
<path d="M27.3275 7.06146H5.32751" stroke="white" stroke-width="2" stroke-linecap="round" stroke-linejoin="round"/>
<path d="M13.3275 13.0615V21.0615" stroke="white" stroke-width="2" stroke-linecap="round" stroke-linejoin="round"/>
<path d="M19.3275 13.0615V21.0615" stroke="white" stroke-width="2" stroke-linecap="round" stroke-linejoin="round"/>
<path d="M25.3275 7.06146V26.0615C25.3275 26.3267 25.2222 26.581 25.0346 26.7686C24.8471 26.9561 24.5927 27.0615 24.3275 27.0615H8.32751C8.0623 27.0615 7.80794 26.9561 7.62041 26.7686C7.43287 26.581 7.32751 26.3267 7.32751 26.0615V7.06146" stroke="white" stroke-width="2" stroke-linecap="round" stroke-linejoin="round"/>
<path d="M21.3275 7.06146V5.06146C21.3275 4.53103 21.1168 4.02232 20.7417 3.64725C20.3667 3.27218 19.8579 3.06146 19.3275 3.06146H13.3275C12.7971 3.06146 12.2884 3.27218 11.9133 3.64725C11.5382 4.02232 11.3275 4.53103 11.3275 5.06146V7.06146" stroke="white" stroke-width="2" stroke-linecap="round" stroke-linejoin="round"/>
</svg>
